<?xml version="1.0" encoding="UTF-8" standalone="no"?>
<!DOCTYPE svg PUBLIC "-//W3C//DTD SVG 1.1//EN" "http://www.w3.org/Graphics/SVG/1.1/DTD/svg11.dtd">
<svg width="100%" height="100%" viewBox="0 0 2250 1900" version="1.1" xmlns="http://www.w3.org/2000/svg" xmlns:xlink="http://www.w3.org/1999/xlink" xml:space="preserve" xmlns:serif="http://www.serif.com/" style="fill-rule:evenodd;clip-rule:evenodd;stroke-linejoin:round;stroke-miterlimit:2;">
    <g>
        <path d="M1695.86,1365.14C1695.06,1343.21 1692.6,1321.15 1709.95,1309.57C1716.46,1305.22 1723.71,1303.72 1731.26,1303.72C1739.61,1303.72 1748.31,1305.55 1756.76,1307.39C1765.21,1309.23 1773.42,1311.06 1780.76,1311.06C1788.32,1311.06 1794.97,1309.11 1800.05,1303.21C1816.27,1284.36 1791.63,1253.99 1811.24,1228.14C1824.11,1211.17 1841.9,1214.83 1844.73,1196.11C1846.68,1183.21 1840.47,1166.57 1829.24,1154.28C1816.83,1140.72 1799.96,1134.31 1786.41,1134.31C1780.18,1134.31 1774.65,1135.66 1770.57,1138.3C1758.19,1146.3 1767.04,1161.03 1755.93,1170.32C1752.22,1173.42 1747.89,1174.58 1743.14,1174.58C1736.1,1174.58 1728.15,1172.03 1720.01,1169.48C1717.05,1168.56 1714.06,1167.63 1711.09,1166.83C1713.42,1164.38 1715.64,1161.63 1717.72,1158.56C1718.16,1157.91 1718.32,1157.1 1718.16,1156.33C1718,1155.56 1717.53,1154.88 1716.86,1154.46C1716.45,1154.2 1690.64,1138.32 1659.47,1138.32C1657.56,1138.32 1655.63,1138.38 1653.68,1138.51L1653.68,1115.54C1722.99,1046.8 1803.89,984.786 1805.29,983.717C1806.56,982.742 1806.81,980.915 1805.84,979.637C1805.26,978.887 1804.4,978.496 1803.52,978.496C1802.91,978.496 1802.29,978.69 1801.76,979.087C1801.15,979.553 1740.17,1026.19 1679.06,1083.02C1670.14,1091.31 1661.68,1099.39 1653.68,1107.24L1653.68,819.705L1383.79,819.705L1383.79,818.82C1383.79,814.831 1380.56,811.598 1376.57,811.598C1372.58,811.598 1369.35,814.831 1369.35,818.82L1369.35,819.705L1355.68,819.705C1356.44,815.414 1357.11,810.922 1357.71,806.229L1681,806.229L1681,733.113C1681,719.799 1670.11,708.905 1656.79,708.905L1359.77,708.905C1358.69,687.323 1356.8,663.828 1354.09,638.426C1344.56,549.049 1327.92,468.053 1327.75,467.245C1327.38,465.461 1325.81,464.231 1324.06,464.231C1323.8,464.231 1323.54,464.257 1323.29,464.311C1321.24,464.733 1319.93,466.732 1320.35,468.775C1320.75,470.707 1344.49,587.005 1351.37,695.546C1350.28,694.883 1349,694.502 1347.63,694.502C1343.64,694.502 1340.4,697.735 1340.4,701.723L1340.4,706.368C1333.36,698.091 1324.56,690.841 1314.11,684.754C1293.17,672.562 1273.22,669.364 1272.38,669.234C1272.19,669.204 1271.99,669.189 1271.8,669.189C1270.98,669.189 1270.18,669.455 1269.52,669.957C1268.7,670.575 1268.17,671.499 1268.05,672.516C1266.29,687.16 1269.06,700.63 1276.17,712.585C1269.33,716.874 1264.75,724.485 1264.75,733.113L1264.75,806.229L1350.09,806.229C1349.5,810.888 1348.81,815.373 1348.03,819.705L1292.45,819.705L1292.45,1244.89C1271.31,1239.48 1248.94,1235.02 1225.05,1231.9L1225.05,486.873C1225.05,479.871 1219.37,474.194 1212.37,474.194L520.327,474.194C513.325,474.194 507.649,479.871 507.649,486.873L507.649,1305.61C375.068,1250.37 264.107,1141.33 206.45,1016.26C143.154,878.956 109.55,647.373 230.366,547.974C349.946,449.592 444.278,543.774 585.981,433.437C699.648,344.931 675.665,160.017 813.911,131.603C825.231,129.276 835.501,128.21 844.968,128.21C919.026,128.21 943.443,193.527 1028.88,231.71C1074.54,252.115 1117.3,258.235 1170.07,258.235C1185.85,258.235 1202.55,257.686 1220.47,256.809C1367.55,249.608 1392.18,193.381 1493.61,184.404C1502.42,183.625 1511.31,183.245 1520.28,183.245C1667.96,183.245 1833.68,286.488 1889.15,411.438C1943.73,534.384 1853.39,592.325 1914.12,728.084C1971,855.244 2071.72,851.112 2095.89,944.216C2132.56,1085.54 1953.63,1311.15 1737.13,1358.47C1722.84,1361.59 1709.12,1363.78 1695.86,1365.14ZM1653.68,1241.68L1653.68,1183.67C1657.92,1184.26 1662.25,1184.6 1666.6,1184.6C1668.53,1184.6 1670.46,1184.53 1672.39,1184.39C1670.02,1199.8 1674.22,1220.73 1660.33,1236C1658.25,1238.29 1656.02,1240.17 1653.68,1241.68ZM1666.38,1178.79C1662.11,1178.79 1657.85,1178.43 1653.68,1177.83L1653.68,1144.37C1655.67,1144.22 1657.66,1144.16 1659.62,1144.16C1683.36,1144.16 1703.91,1153.99 1711.06,1157.86C1708.95,1160.65 1706.7,1163.1 1704.34,1165.26C1701.41,1164.71 1698.51,1164.38 1695.68,1164.38C1691.78,1164.38 1688.02,1165.01 1684.46,1166.58C1678.65,1169.14 1675.52,1173.28 1673.79,1178.41C1671.33,1178.67 1668.85,1178.79 1666.38,1178.79ZM1283.11,709.624C1277.16,699.992 1274.51,689.264 1275.19,677.499C1281.84,679.01 1295.93,682.911 1310.3,691.283C1319.09,696.399 1326.55,702.28 1332.68,708.905L1288.96,708.905C1286.95,708.905 1284.99,709.154 1283.11,709.624Z" style="fill:rgb(227,250,250);fill-rule:nonzero;"/>
        <path d="M244.106,705.511C237.489,705.511 232.106,710.894 232.106,717.511C232.106,724.129 237.489,729.511 244.106,729.511C250.723,729.511 256.105,724.129 256.105,717.511C256.105,710.894 250.723,705.511 244.106,705.511ZM244.106,737.511C233.078,737.511 224.106,728.539 224.106,717.511C224.106,706.484 233.078,697.511 244.106,697.511C255.133,697.511 264.106,706.484 264.106,717.511C264.106,728.539 255.133,737.511 244.106,737.511Z" style="fill:rgb(1,174,179);fill-rule:nonzero;"/>
        <path d="M1473.78,513.537C1467.16,513.537 1461.78,518.92 1461.78,525.537C1461.78,532.154 1467.16,537.537 1473.78,537.537C1480.39,537.537 1485.78,532.154 1485.78,525.537C1485.78,518.92 1480.39,513.537 1473.78,513.537ZM1473.78,545.537C1462.75,545.537 1453.78,536.564 1453.78,525.537C1453.78,514.509 1462.75,505.537 1473.78,505.537C1484.8,505.537 1493.78,514.509 1493.78,525.537C1493.78,536.564 1484.8,545.537 1473.78,545.537Z" style="fill:rgb(255,134,129);fill-rule:nonzero;"/>
        <path d="M1985.84,1020.73C1979.23,1020.73 1973.84,1026.11 1973.84,1032.73C1973.84,1039.35 1979.23,1044.73 1985.84,1044.73C1992.46,1044.73 1997.84,1039.35 1997.84,1032.73C1997.84,1026.11 1992.46,1020.73 1985.84,1020.73ZM1985.84,1052.73C1974.82,1052.73 1965.84,1043.76 1965.84,1032.73C1965.84,1021.7 1974.82,1012.73 1985.84,1012.73C1996.87,1012.73 2005.84,1021.7 2005.84,1032.73C2005.84,1043.76 1996.87,1052.73 1985.84,1052.73Z" style="fill:rgb(1,174,179);fill-rule:nonzero;"/>
        <path d="M495.068,224.352C488.45,224.352 483.068,229.735 483.068,236.352C483.068,242.969 488.45,248.352 495.068,248.352C501.685,248.352 507.068,242.969 507.068,236.352C507.068,229.735 501.685,224.352 495.068,224.352ZM495.068,256.352C484.04,256.352 475.068,247.38 475.068,236.352C475.068,225.325 484.04,216.352 495.068,216.352C506.095,216.352 515.068,225.325 515.068,236.352C515.068,247.38 506.095,256.352 495.068,256.352Z" style="fill:rgb(255,134,129);fill-rule:nonzero;"/>
        <path d="M1147.61,1665.14C1020.45,1665.14 917.372,1650.91 917.372,1633.35C917.372,1615.79 1020.45,1601.55 1147.61,1601.55C1274.77,1601.55 1377.85,1615.79 1377.85,1633.35C1377.85,1650.91 1274.77,1665.14 1147.61,1665.14Z" style="fill:rgb(242,241,245);fill-rule:nonzero;"/>
        <path d="M433.294,1640.52C318.551,1640.52 225.534,1626.28 225.534,1608.72C225.534,1591.17 318.551,1576.93 433.294,1576.93C548.037,1576.93 641.055,1591.17 641.055,1608.72C641.055,1626.28 548.037,1640.52 433.294,1640.52Z" style="fill:rgb(242,241,245);fill-rule:nonzero;"/>
        <path d="M837.29,1521.48C708.37,1521.48 603.86,1508.25 603.86,1491.93C603.86,1479.44 665.02,1468.76 751.485,1464.43C769.938,1473.69 787.958,1478.95 804.122,1478.95L804.313,1478.95C804.313,1478.95 806.632,1479.13 810.27,1479.13C819.239,1479.13 836.238,1478.05 846.399,1470.59C856.382,1477.84 872.887,1478.94 881.993,1478.94C885.966,1478.94 888.528,1478.73 888.528,1478.73C903.946,1478.7 921.043,1473.84 938.573,1465.29C1016.77,1470.06 1070.72,1480.2 1070.72,1491.93C1070.72,1508.25 966.209,1521.48 837.29,1521.48Z" style="fill:rgb(242,241,245);fill-rule:nonzero;"/>
        <path d="M703.854,1453.63C574.935,1453.63 470.424,1440.4 470.424,1424.07C470.424,1418.17 484.094,1412.67 507.649,1408.06L507.649,1409.15C507.649,1416.15 513.325,1421.82 520.327,1421.82L691.684,1421.82C704.769,1433.95 718.458,1444.64 732.19,1453.41C722.901,1453.56 713.446,1453.63 703.854,1453.63Z" style="fill:rgb(242,241,245);fill-rule:nonzero;"/>
        <path d="M1551.95,1483.19C1385.93,1483.19 1251.35,1469.95 1251.35,1453.63C1251.35,1448.09 1266.87,1442.9 1293.86,1438.47C1297.22,1447.82 1306.19,1454.56 1316.66,1454.56L1629.47,1454.56C1642.78,1454.56 1653.68,1443.66 1653.68,1430.35L1653.68,1425.81C1769.63,1429.91 1852.56,1440.82 1852.56,1453.63C1852.56,1469.95 1717.97,1483.19 1551.95,1483.19Z" style="fill:rgb(242,241,245);fill-rule:nonzero;"/>
        <path d="M1829.24,1154.28C1811.13,1134.49 1783.53,1129.92 1770.57,1138.3C1758.19,1146.3 1767.04,1161.03 1755.93,1170.32C1746.72,1178.02 1733.64,1173.75 1720.01,1169.48C1707.82,1165.66 1695.18,1161.85 1684.46,1166.58C1661.01,1176.93 1681.31,1212.93 1660.33,1236C1646.95,1250.73 1627.72,1248.13 1607.77,1245.54C1589.4,1243.15 1570.42,1240.76 1554.85,1251.92C1523.78,1274.19 1515.82,1343.6 1557.32,1388.59C1593.97,1428.32 1656.9,1435.71 1682.54,1413.03C1712.48,1386.53 1678.35,1330.67 1709.95,1309.57C1723.67,1300.4 1740.67,1303.9 1756.76,1307.39C1773.92,1311.12 1790.04,1314.84 1800.05,1303.21C1816.27,1284.36 1791.63,1253.99 1811.24,1228.14C1824.11,1211.17 1841.9,1214.83 1844.73,1196.11C1846.68,1183.21 1840.47,1166.57 1829.24,1154.28Z" style="fill:rgb(143,208,214);fill-rule:nonzero;"/>
        <path d="M1488.78,1427.4C1486.88,1427.4 1485.32,1425.89 1485.28,1423.98C1485.23,1422.05 1486.76,1420.45 1488.69,1420.4C1562.14,1418.58 1791.16,1185.43 1793.47,1183.08C1794.82,1181.7 1797.03,1181.67 1798.42,1183.03C1799.8,1184.38 1799.82,1186.59 1798.47,1187.98C1797.89,1188.57 1739.74,1247.87 1673.08,1306.64C1583.09,1385.97 1521.11,1426.6 1488.86,1427.4L1488.78,1427.4Z" style="fill:rgb(195,227,230);fill-rule:nonzero;"/>
        <path d="M1664.85,1379.94C1664.65,1379.94 1664.45,1379.93 1664.25,1379.89L1599.37,1368.81C1597.69,1368.52 1596.46,1367.05 1596.46,1365.34L1596.81,1281.94C1596.82,1280.01 1598.38,1278.46 1600.31,1278.46L1600.32,1278.46C1602.26,1278.46 1603.82,1280.04 1603.81,1281.97L1603.48,1362.41L1665.43,1372.99C1667.34,1373.32 1668.62,1375.13 1668.29,1377.03C1668,1378.74 1666.52,1379.94 1664.85,1379.94Z" style="fill:rgb(195,227,230);fill-rule:nonzero;"/>
        <path d="M1779.16,1275.65C1778.9,1275.65 1778.64,1275.62 1778.38,1275.56L1720.04,1262.16C1718.66,1261.85 1717.61,1260.73 1717.38,1259.33L1707.75,1201.67C1707.43,1199.76 1708.72,1197.96 1710.63,1197.64C1712.53,1197.32 1714.34,1198.61 1714.65,1200.52L1723.89,1255.87L1779.94,1268.74C1781.83,1269.17 1783,1271.05 1782.57,1272.93C1782.2,1274.55 1780.76,1275.65 1779.16,1275.65Z" style="fill:rgb(195,227,230);fill-rule:nonzero;"/>
        <path d="M1554.13,1257.8C1553.69,1258 1553.2,1258.09 1552.69,1258.05C1551.09,1257.91 1549.9,1256.5 1550.03,1254.9C1553.21,1217.53 1596.62,1159.7 1679.06,1083.02C1740.17,1026.19 1801.15,979.553 1801.76,979.087C1803.04,978.124 1804.86,978.36 1805.84,979.637C1806.81,980.915 1806.56,982.742 1805.29,983.717C1802.87,985.564 1563.15,1169.35 1555.84,1255.39C1555.74,1256.48 1555.06,1257.38 1554.13,1257.8Z" style="fill:rgb(250,147,142);fill-rule:nonzero;"/>
        <path d="M1807.58,979.484C1823.63,979.323 1882.9,975.436 1891.54,927.312C1878.11,927.182 1826.87,930.033 1807.58,979.484ZM1859.25,974.769C1833.24,986.556 1803.78,985.282 1803.28,985.256C1802.37,985.208 1801.53,984.737 1801.02,983.981C1800.51,983.225 1800.38,982.273 1800.68,981.409C1822.53,917.257 1894.4,921.561 1895.12,921.61C1895.92,921.666 1896.66,922.049 1897.17,922.669C1897.68,923.288 1897.91,924.09 1897.81,924.884C1894.39,951.483 1877.69,966.411 1859.25,974.769Z" style="fill:rgb(250,147,142);fill-rule:nonzero;"/>
        <path d="M1711.29,1062.36C1723.82,1072.36 1773.97,1108.28 1809.51,1074.38C1804.97,1070.61 1793.91,1062.22 1779.25,1056.56C1754.93,1047.17 1732.09,1049.13 1711.29,1062.36ZM1797.38,1089.66C1755.02,1108.86 1705.06,1064.79 1704.49,1064.27C1703.82,1063.68 1703.47,1062.81 1703.52,1061.93C1703.58,1061.04 1704.03,1060.23 1704.76,1059.72C1760.41,1020.8 1815.22,1071.6 1815.77,1072.11C1816.33,1072.64 1816.66,1073.38 1816.68,1074.15C1816.7,1074.92 1816.41,1075.67 1815.88,1076.23C1810.02,1082.4 1803.78,1086.76 1797.38,1089.66Z" style="fill:rgb(250,147,142);fill-rule:nonzero;"/>
        <path d="M1722.38,959.446C1713.5,969.529 1682.16,1010.16 1706.97,1057.09C1717.34,1044.84 1753.15,997.443 1722.38,959.446ZM1707.63,1064.75C1707.16,1064.97 1706.62,1065.06 1706.09,1064.99C1705.18,1064.89 1704.38,1064.36 1703.92,1063.57C1669.66,1005.1 1719.89,953.524 1720.4,953.009C1720.97,952.443 1721.74,952.133 1722.54,952.152C1723.34,952.173 1724.1,952.523 1724.64,953.121C1767.77,1001.25 1709.13,1063.49 1708.53,1064.12C1708.27,1064.39 1707.97,1064.6 1707.63,1064.75Z" style="fill:rgb(250,147,142);fill-rule:nonzero;"/>
        <path d="M1609.68,1162.97C1624.23,1170.61 1681.41,1197.04 1711.06,1157.86C1699.01,1151.35 1649.04,1127.93 1609.68,1162.97ZM1693.84,1179.14C1655.18,1196.66 1603.9,1166.46 1603.26,1166.08C1602.49,1165.62 1601.98,1164.82 1601.87,1163.93C1601.76,1163.03 1602.08,1162.13 1602.73,1161.5C1651.21,1114.08 1716.21,1154.05 1716.86,1154.46C1717.53,1154.88 1718,1155.56 1718.16,1156.33C1718.32,1157.1 1718.16,1157.91 1717.72,1158.56C1710.94,1168.56 1702.72,1175.11 1693.84,1179.14Z" style="fill:rgb(250,147,142);fill-rule:nonzero;"/>
        <path d="M1600.3,1057.51C1593.93,1069.65 1572.86,1116.75 1604.33,1158.36C1612,1143.83 1636.63,1089.98 1600.3,1057.51ZM1605.96,1166.24C1605.65,1166.38 1605.32,1166.46 1604.97,1166.49C1604.04,1166.56 1603.13,1166.17 1602.52,1165.45C1559.26,1113.46 1596.63,1052.08 1597.01,1051.46C1597.46,1050.76 1598.18,1050.27 1599,1050.13C1599.82,1049.99 1600.66,1050.21 1601.31,1050.73C1651.62,1091.09 1607.7,1164.37 1607.25,1165.1C1606.94,1165.61 1606.49,1166 1605.96,1166.24Z" style="fill:rgb(250,147,142);fill-rule:nonzero;"/>
        <path d="M1334.42,871.242C1333.64,871.242 1332.86,871.006 1332.19,870.516C1330.51,869.286 1330.14,866.922 1331.37,865.238C1386.01,790.369 1321.01,471.982 1320.35,468.775C1319.93,466.732 1321.24,464.733 1323.29,464.311C1325.33,463.886 1327.33,465.202 1327.75,467.245C1327.92,468.053 1344.56,549.049 1354.09,638.426C1366.97,759.128 1361.38,836.937 1337.47,869.691C1336.73,870.705 1335.58,871.242 1334.42,871.242Z" style="fill:rgb(143,208,214);fill-rule:nonzero;"/>
        <path d="M1290.85,362.905C1278.63,383.875 1280.28,407.078 1295.77,431.936C1304.66,446.201 1315.94,457.226 1321.82,462.483C1330.31,437.981 1327.59,413.754 1313.69,390.397C1305.64,376.863 1295.8,367.276 1290.85,362.905ZM1323.46,472.62C1322.62,472.62 1321.8,472.343 1321.13,471.819C1320.39,471.236 1302.72,457.303 1289.46,436.101C1271.53,407.426 1270.61,379.428 1286.79,355.135C1287.37,354.27 1288.28,353.68 1289.3,353.506C1290.32,353.331 1291.38,353.585 1292.21,354.211C1292.85,354.693 1308.05,366.258 1320.04,386.301C1331.2,404.956 1341.46,434.667 1326.96,470.268C1326.51,471.364 1325.57,472.188 1324.43,472.493C1324.11,472.578 1323.78,472.62 1323.46,472.62Z" style="fill:rgb(143,208,214);fill-rule:nonzero;"/>
        <path d="M1254.24,540.015C1256.75,564.171 1272.26,581.279 1300.42,590.903C1316.77,596.49 1333.06,597.915 1340.98,598.273C1333.35,573.508 1316.4,556.222 1290.52,546.857C1275.26,541.33 1260.91,540.214 1254.24,540.015ZM1345.38,605.947C1341.32,605.947 1319.97,605.569 1297.98,598.052C1265.53,586.963 1247.7,565.641 1246.4,536.389C1246.35,535.387 1246.71,534.408 1247.39,533.669C1248.06,532.929 1249.01,532.49 1250.01,532.447C1250.84,532.414 1270.62,531.678 1292.85,539.665C1322.6,550.353 1342.24,571.649 1349.64,601.249C1349.92,602.367 1349.68,603.552 1348.98,604.466C1348.27,605.381 1347.19,605.925 1346.04,605.943C1345.96,605.945 1345.74,605.947 1345.38,605.947Z" style="fill:rgb(143,208,214);fill-rule:nonzero;"/>
        <path d="M1404.84,508.235C1380.98,512.7 1364.5,529.114 1355.81,557.086C1350.82,573.137 1349.86,588.884 1349.72,596.77C1373.89,587.148 1390.47,569.166 1399.04,543.253C1403.96,528.358 1404.77,514.794 1404.84,508.235ZM1345.98,605.944C1345.23,605.944 1344.49,605.72 1343.85,605.288C1342.87,604.621 1342.26,603.534 1342.21,602.351C1342.16,601.406 1341.16,578.93 1348.53,555.037C1358.51,522.722 1379.1,503.722 1408.06,500.09C1409.09,499.964 1410.13,500.262 1410.93,500.923C1411.74,501.584 1412.23,502.547 1412.3,503.584C1412.35,504.384 1413.54,523.449 1406.21,545.624C1399.39,566.264 1383.61,593.45 1347.19,605.745C1346.79,605.878 1346.39,605.944 1345.98,605.944Z" style="fill:rgb(143,208,214);fill-rule:nonzero;"/>
        <path d="M1275.19,677.499C1273.79,701.76 1286.56,721.607 1313.2,736.539C1328.66,745.199 1344.73,749.754 1352.63,751.645C1349.08,725.872 1334.86,705.584 1310.3,691.283C1295.93,682.911 1281.84,679.01 1275.19,677.499ZM1356.95,760.222C1356.73,760.222 1356.51,760.203 1356.29,760.165C1355.32,759.992 1332.1,755.79 1309.51,743.129C1278.89,725.974 1264.56,701.556 1268.05,672.516C1268.17,671.499 1268.7,670.575 1269.52,669.957C1270.34,669.337 1271.37,669.077 1272.38,669.234C1273.22,669.364 1293.17,672.562 1314.11,684.754C1342.13,701.07 1358.24,725.755 1360.72,756.139C1360.81,757.305 1360.36,758.451 1359.49,759.239C1358.79,759.877 1357.88,760.222 1356.95,760.222Z" style="fill:rgb(143,208,214);fill-rule:nonzero;"/>
        <path d="M1434.68,674.03C1410.39,674.62 1390.75,688.062 1376.24,714.042C1368.01,728.785 1363.69,743.872 1361.83,751.669C1387.27,746.073 1407.26,731.119 1421.31,707.154C1429.29,693.532 1433.12,680.539 1434.68,674.03ZM1356.95,760.222C1355.95,760.222 1354.99,759.827 1354.27,759.109C1353.41,758.245 1353.02,757.02 1353.23,755.819C1353.38,754.885 1357.21,732.719 1369.55,710.536C1386.2,680.592 1410.38,665.38 1439.48,666.517C1440.56,666.559 1441.57,667.061 1442.25,667.897C1442.93,668.732 1443.23,669.82 1443.06,670.886C1442.93,671.677 1439.83,690.493 1427.83,710.975C1411.82,738.281 1387.52,755.294 1357.56,760.174C1357.36,760.206 1357.15,760.222 1356.95,760.222Z" style="fill:rgb(143,208,214);fill-rule:nonzero;"/>
        <path d="M364.038,485.358C377.647,469.533 403.589,467.094 415.656,477.128C428.584,487.876 417.993,506.617 429.255,515.606C447.487,530.158 488.806,491.86 507.167,505.94C519.892,515.697 505.458,538.241 519.294,554.64C535.843,574.252 567.013,554.49 591.828,570.288C621.676,589.29 636.392,655.958 601.45,696.891C573.042,730.169 518.633,738.446 495.773,718.217C470.57,695.913 495.34,649.244 470.048,631.038C444.665,612.767 401.146,646.407 386.789,629.501C374.406,614.919 403.349,585.844 388.316,558.415C379.055,541.518 362.86,543.043 356.698,524.303C352.742,512.271 354.444,496.514 364.038,485.358Z" style="fill:rgb(255,189,186);fill-rule:nonzero;"/>
        <path d="M635.976,750.687C634.665,750.687 633.399,749.971 632.759,748.723C602.188,689.187 549.228,641.37 510.183,611.741C467.808,579.585 432.31,561.37 431.956,561.189C430.178,560.283 429.472,558.107 430.378,556.329C431.284,554.551 433.46,553.844 435.239,554.751C435.598,554.934 471.67,573.443 514.552,605.984C554.194,636.067 607.996,684.677 639.188,745.423C640.099,747.197 639.399,749.376 637.624,750.287C637.096,750.559 636.532,750.687 635.976,750.687Z" style="fill:rgb(250,147,142);fill-rule:nonzero;"/>
        <path d="M1352.13,708.905L1342.49,708.905C1341.81,708.049 1341.12,707.204 1340.4,706.368L1340.4,701.723C1340.4,697.735 1343.64,694.502 1347.63,694.502C1349,694.502 1350.28,694.883 1351.37,695.546C1351.65,700.022 1351.91,704.464 1352.13,708.905Z" style="fill:rgb(244,253,253);fill-rule:nonzero;"/>
        <path d="M1354.85,708.905L1352.13,708.905C1351.91,704.464 1351.65,700.022 1351.37,695.546C1353.46,696.812 1354.85,699.105 1354.85,701.723L1354.85,708.905Z" style="fill:rgb(210,236,239);fill-rule:nonzero;"/>
        <path d="M1342.49,708.905L1340.4,708.905L1340.4,706.368C1341.12,707.204 1341.81,708.049 1342.49,708.905Z" style="fill:rgb(210,236,239);fill-rule:nonzero;"/>
        <path d="M1383.79,819.705L1369.35,819.705L1369.35,818.82C1369.35,814.831 1372.58,811.598 1376.57,811.598C1380.56,811.598 1383.79,814.831 1383.79,818.82L1383.79,819.705Z" style="fill:rgb(233,251,251);fill-rule:nonzero;"/>
        <path d="M1629.09,1454.56L1316.66,1454.56C1303.35,1454.56 1292.45,1443.66 1292.45,1430.35L1292.45,819.705L1653.3,819.705L1653.3,1430.35C1653.3,1443.66 1642.41,1454.56 1629.09,1454.56Z" style="fill:rgb(250,147,142);fill-rule:nonzero;"/>
        <path d="M1397.34,1375.81L1397.34,1434.21L1341.19,1434.21C1325.12,1434.21 1311.99,1421.07 1311.99,1405.01C1311.99,1396.98 1315.27,1389.68 1320.57,1384.39C1325.86,1379.09 1333.16,1375.81 1341.19,1375.81L1397.34,1375.81Z" style="fill:rgb(255,102,58);fill-rule:nonzero;"/>
        <path d="M1484.18,1405.01C1484.18,1413.03 1480.9,1420.34 1475.6,1425.63C1470.32,1430.93 1463.01,1434.21 1454.98,1434.21L1397.34,1434.21L1397.34,1375.81L1454.98,1375.81C1471.05,1375.81 1484.18,1388.94 1484.18,1405.01Z" style="fill:rgb(243,245,247);fill-rule:nonzero;"/>
        <path d="M1549.53,1348.04L1530.01,1403.08L1477.09,1384.31C1461.95,1378.93 1453.97,1362.17 1459.34,1347.03C1462.02,1339.46 1467.56,1333.67 1474.32,1330.46C1481.07,1327.24 1489.05,1326.59 1496.62,1329.27L1549.53,1348.04Z" style="fill:rgb(255,102,58);fill-rule:nonzero;"/>
        <path d="M1621.62,1404.6C1618.93,1412.16 1613.4,1417.95 1606.64,1421.16C1599.89,1424.39 1591.9,1425.04 1584.34,1422.35L1530.01,1403.08L1549.53,1348.04L1603.86,1367.32C1619,1372.69 1626.99,1389.46 1621.62,1404.6Z" style="fill:rgb(243,245,247);fill-rule:nonzero;"/>
        <path d="M1435.09,1346.21L1409.54,1293.7L1460.03,1269.13C1474.48,1262.11 1492.03,1268.17 1499.06,1282.62C1502.57,1289.83 1502.82,1297.84 1500.36,1304.91C1497.93,1311.99 1492.79,1318.13 1485.58,1321.64L1435.09,1346.21Z" style="fill:rgb(255,102,58);fill-rule:nonzero;"/>
        <path d="M1344.22,1357.95C1340.71,1350.73 1340.46,1342.72 1342.92,1335.65C1345.35,1328.57 1350.49,1322.43 1357.7,1318.92L1409.54,1293.7L1435.09,1346.21L1383.25,1371.43C1368.8,1378.46 1351.25,1372.39 1344.22,1357.95Z" style="fill:rgb(243,245,247);fill-rule:nonzero;"/>
        <path d="M1653.68,1425.81C1653.55,1425.8 1653.43,1425.8 1653.3,1425.8L1653.3,1425C1653.42,1424.99 1653.55,1424.97 1653.68,1424.95L1653.68,1425.81Z" style="fill:rgb(252,180,176);fill-rule:nonzero;"/>
        <path d="M1653.3,1241.92L1653.3,1183.62C1653.42,1183.64 1653.55,1183.66 1653.68,1183.67L1653.68,1241.68C1653.55,1241.76 1653.43,1241.84 1653.3,1241.92ZM1653.68,1177.83C1653.55,1177.81 1653.43,1177.79 1653.3,1177.77L1653.3,1144.4C1653.43,1144.39 1653.55,1144.38 1653.68,1144.37L1653.68,1177.83ZM1653.3,1138.54L1653.3,1115.92C1653.42,1115.79 1653.55,1115.67 1653.68,1115.54L1653.68,1138.51C1653.55,1138.52 1653.43,1138.53 1653.3,1138.54ZM1653.3,1107.61L1653.3,819.705L1653.68,819.705L1653.68,1107.24C1653.55,1107.37 1653.43,1107.49 1653.3,1107.61Z" style="fill:rgb(243,178,175);fill-rule:nonzero;"/>
        <path d="M1629.47,1454.56L1317.04,1454.56L1629.09,1454.56C1642.41,1454.56 1653.3,1443.66 1653.3,1430.35L1653.3,1425.8C1653.43,1425.8 1653.55,1425.8 1653.68,1425.81L1653.68,1430.35C1653.68,1443.66 1642.78,1454.56 1629.47,1454.56Z" style="fill:rgb(248,175,173);fill-rule:nonzero;"/>
        <path d="M1653.3,1425L1653.3,1378.02L1653.68,1378.09L1653.68,1424.95C1653.55,1424.97 1653.42,1424.99 1653.3,1425ZM1653.68,1370.98L1653.3,1370.92L1653.3,1323.84C1653.43,1323.73 1653.55,1323.62 1653.68,1323.51L1653.68,1370.98ZM1653.3,1314.56L1653.3,1241.92C1653.43,1241.84 1653.55,1241.76 1653.68,1241.68L1653.68,1314.23C1653.55,1314.34 1653.42,1314.45 1653.3,1314.56Z" style="fill:rgb(218,165,164);fill-rule:nonzero;"/>
        <path d="M1653.3,1323.84L1653.3,1314.56C1653.42,1314.45 1653.55,1314.34 1653.68,1314.23L1653.68,1323.51C1653.55,1323.62 1653.43,1323.73 1653.3,1323.84Z" style="fill:rgb(233,171,169);fill-rule:nonzero;"/>
        <path d="M1653.68,1378.09L1653.3,1378.02L1653.3,1370.92L1653.68,1370.98L1653.68,1378.09Z" style="fill:rgb(233,171,169);fill-rule:nonzero;"/>
        <path d="M1653.3,1115.92L1653.3,1107.61C1653.43,1107.49 1653.55,1107.37 1653.68,1107.24L1653.68,1115.54C1653.55,1115.67 1653.42,1115.79 1653.3,1115.92Z" style="fill:rgb(250,147,142);fill-rule:nonzero;"/>
        <path d="M1653.68,1183.67C1653.55,1183.66 1653.42,1183.64 1653.3,1183.62L1653.3,1177.77C1653.43,1177.79 1653.55,1177.81 1653.68,1177.83L1653.68,1183.67ZM1653.3,1144.4L1653.3,1138.54C1653.43,1138.53 1653.55,1138.52 1653.68,1138.51L1653.68,1144.37C1653.55,1144.38 1653.43,1144.39 1653.3,1144.4Z" style="fill:rgb(250,147,142);fill-rule:nonzero;"/>
        <path d="M1629.09,1454.56L1317.04,1454.56C1303.72,1454.56 1292.83,1443.66 1292.83,1430.35L1292.83,826.464L1653.3,846.25L1653.3,1430.35C1653.3,1443.66 1642.41,1454.56 1629.09,1454.56ZM1397.34,1375.81L1397.34,1434.21L1454.98,1434.21C1463.01,1434.21 1470.32,1430.93 1475.6,1425.63C1480.9,1420.34 1484.18,1413.03 1484.18,1405.01C1484.18,1396.33 1480.34,1388.5 1474.28,1383.14C1475.19,1383.57 1476.13,1383.96 1477.09,1384.31L1530.01,1403.08L1549.53,1348.04L1496.62,1329.27C1493.42,1328.14 1490.15,1327.6 1486.92,1327.6C1482.52,1327.6 1478.21,1328.6 1474.32,1330.46C1467.56,1333.67 1462.02,1339.46 1459.34,1347.03C1455.25,1358.54 1458.89,1370.99 1467.52,1378.66C1463.72,1376.83 1459.47,1375.81 1454.98,1375.81L1397.34,1375.81ZM1317.55,1387.92C1314.05,1392.73 1311.99,1398.64 1311.99,1405.01C1311.99,1421.07 1325.12,1434.21 1341.19,1434.21L1397.34,1434.21L1397.34,1375.81L1341.19,1375.81C1338.71,1375.81 1336.3,1376.12 1333.99,1376.71L1333.99,866.349C1333.99,861.81 1330.31,858.13 1325.77,858.13C1321.23,858.13 1317.55,861.81 1317.55,866.349L1317.55,1387.92ZM1549.53,1348.04L1530.01,1403.08L1584.34,1422.35C1587.54,1423.49 1590.81,1424.03 1594.04,1424.03C1598.43,1424.03 1602.74,1423.02 1606.64,1421.16C1613.4,1417.95 1618.93,1412.16 1621.62,1404.6C1626.99,1389.46 1619,1372.69 1603.86,1367.32L1549.53,1348.04ZM1409.54,1293.7L1357.7,1318.92C1350.49,1322.43 1345.35,1328.57 1342.92,1335.65C1340.46,1342.72 1340.71,1350.73 1344.22,1357.95C1349.26,1368.31 1359.72,1374.36 1370.55,1374.36C1374.83,1374.36 1379.16,1373.42 1383.25,1371.43L1435.09,1346.21L1409.54,1293.7ZM1472.72,1266.21C1468.45,1266.21 1464.11,1267.15 1460.03,1269.13L1409.54,1293.7L1435.09,1346.21L1485.58,1321.64C1492.79,1318.13 1497.93,1311.99 1500.36,1304.91C1502.82,1297.84 1502.57,1289.83 1499.06,1282.62C1494.02,1272.25 1483.56,1266.21 1472.72,1266.21ZM1292.83,826.439L1292.83,819.705L1653.3,819.705L1653.3,822.709L1292.83,826.439Z" style="fill:rgb(250,147,142);fill-rule:nonzero;"/>
        <path d="M1397.34,1434.21L1341.19,1434.21C1325.12,1434.21 1311.99,1421.07 1311.99,1405.01C1311.99,1398.64 1314.05,1392.73 1317.55,1387.92L1317.55,1415.86C1317.55,1420.39 1321.23,1424.07 1325.77,1424.07C1330.31,1424.07 1333.99,1420.39 1333.99,1415.86L1333.99,1376.71C1336.3,1376.12 1338.71,1375.81 1341.19,1375.81L1397.34,1375.81L1397.34,1434.21Z" style="fill:rgb(252,133,117);fill-rule:nonzero;"/>
        <path d="M1454.98,1434.21L1397.34,1434.21L1397.34,1375.81L1454.98,1375.81C1459.47,1375.81 1463.72,1376.83 1467.52,1378.66C1469.52,1380.43 1471.78,1381.95 1474.28,1383.14C1480.34,1388.5 1484.18,1396.33 1484.18,1405.01C1484.18,1413.03 1480.9,1420.34 1475.6,1425.63C1470.32,1430.93 1463.01,1434.21 1454.98,1434.21Z" style="fill:rgb(248,177,174);fill-rule:nonzero;"/>
        <path d="M1530.01,1403.08L1477.09,1384.31C1476.13,1383.96 1475.19,1383.57 1474.28,1383.14C1471.78,1381.95 1469.52,1380.43 1467.52,1378.66C1458.89,1370.99 1455.25,1358.54 1459.34,1347.03C1462.02,1339.46 1467.56,1333.67 1474.32,1330.46C1478.21,1328.6 1482.52,1327.6 1486.92,1327.6C1490.15,1327.6 1493.42,1328.14 1496.62,1329.27L1549.53,1348.04L1530.01,1403.08Z" style="fill:rgb(252,133,117);fill-rule:nonzero;"/>
        <path d="M1594.04,1424.03C1590.81,1424.03 1587.54,1423.49 1584.34,1422.35L1530.01,1403.08L1549.53,1348.04L1603.86,1367.32C1619,1372.69 1626.99,1389.46 1621.62,1404.6C1618.93,1412.16 1613.4,1417.95 1606.64,1421.16C1602.74,1423.02 1598.43,1424.03 1594.04,1424.03Z" style="fill:rgb(248,177,174);fill-rule:nonzero;"/>
        <path d="M1435.09,1346.21L1409.54,1293.7L1460.03,1269.13C1464.11,1267.15 1468.45,1266.21 1472.72,1266.21C1483.56,1266.21 1494.02,1272.25 1499.06,1282.62C1502.57,1289.83 1502.82,1297.84 1500.36,1304.91C1497.93,1311.99 1492.79,1318.13 1485.58,1321.64L1435.09,1346.21Z" style="fill:rgb(252,133,117);fill-rule:nonzero;"/>
        <path d="M1370.55,1374.36C1359.72,1374.36 1349.26,1368.31 1344.22,1357.95C1340.71,1350.73 1340.46,1342.72 1342.92,1335.65C1345.35,1328.57 1350.49,1322.43 1357.7,1318.92L1409.54,1293.7L1435.09,1346.21L1383.25,1371.43C1379.16,1373.42 1374.83,1374.36 1370.55,1374.36Z" style="fill:rgb(248,177,174);fill-rule:nonzero;"/>
        <path d="M1649.82,1255.26L1364.11,1255.26C1361.98,1255.26 1360.25,1253.53 1360.25,1251.41L1360.25,949.111C1360.25,946.983 1361.98,945.258 1364.11,945.258L1649.82,945.258C1651.95,945.258 1653.68,946.983 1653.68,949.111L1653.68,1251.41C1653.68,1253.53 1651.95,1255.26 1649.82,1255.26Z" style="fill:rgb(243,245,247);fill-rule:nonzero;"/>
        <path d="M1607.95,1067.3L1405.22,1067.3C1401.74,1067.3 1398.93,1064.49 1398.93,1061.02C1398.93,1057.54 1401.74,1054.73 1405.22,1054.73L1607.95,1054.73C1611.42,1054.73 1614.23,1057.54 1614.23,1061.02C1614.23,1064.49 1611.42,1067.3 1607.95,1067.3Z" style="fill:rgb(190,197,217);fill-rule:nonzero;"/>
        <path d="M1558.5,1097.9L1405.22,1097.9C1401.74,1097.9 1398.93,1095.09 1398.93,1091.62C1398.93,1088.15 1401.74,1085.33 1405.22,1085.33L1558.5,1085.33C1561.97,1085.33 1564.79,1088.15 1564.79,1091.62C1564.79,1095.09 1561.97,1097.9 1558.5,1097.9Z" style="fill:rgb(190,197,217);fill-rule:nonzero;"/>
        <path d="M1607.95,1128.51L1405.22,1128.51C1401.74,1128.51 1398.93,1125.69 1398.93,1122.22C1398.93,1118.75 1401.74,1115.93 1405.22,1115.93L1607.95,1115.93C1611.42,1115.93 1614.23,1118.75 1614.23,1122.22C1614.23,1125.69 1611.42,1128.51 1607.95,1128.51Z" style="fill:rgb(190,197,217);fill-rule:nonzero;"/>
        <path d="M1581.09,1159.11L1405.22,1159.11C1401.74,1159.11 1398.93,1156.29 1398.93,1152.82C1398.93,1149.35 1401.74,1146.53 1405.22,1146.53L1581.09,1146.53C1584.56,1146.53 1587.37,1149.35 1587.37,1152.82C1587.37,1156.29 1584.56,1159.11 1581.09,1159.11Z" style="fill:rgb(190,197,217);fill-rule:nonzero;"/>
        <path d="M1541.39,1189.71L1405.22,1189.71C1401.74,1189.71 1398.93,1186.89 1398.93,1183.42C1398.93,1179.95 1401.74,1177.13 1405.22,1177.13L1541.39,1177.13C1544.87,1177.13 1547.68,1179.95 1547.68,1183.42C1547.68,1186.89 1544.87,1189.71 1541.39,1189.71Z" style="fill:rgb(190,197,217);fill-rule:nonzero;"/>
        <path d="M1607.95,1003.32L1404.7,1003.32C1399.51,1003.32 1395.3,999.114 1395.3,993.92C1395.3,988.725 1399.51,984.515 1404.7,984.515L1607.95,984.515C1613.14,984.515 1617.35,988.725 1617.35,993.92C1617.35,999.114 1613.14,1003.32 1607.95,1003.32Z" style="fill:rgb(190,197,217);fill-rule:nonzero;"/>
        <path d="M1292.83,826.464L1292.45,826.443L1292.83,826.439L1292.83,826.464Z" style="fill:rgb(193,124,124);fill-rule:nonzero;"/>
        <path d="M1653.3,846.25L1292.83,826.464L1292.83,826.439L1653.3,822.709L1653.3,846.25Z" style="fill:rgb(193,124,124);fill-rule:nonzero;"/>
        <path d="M1681,806.229L1264.75,806.229L1264.75,733.113C1264.75,719.799 1275.65,708.905 1288.96,708.905L1656.79,708.905C1670.11,708.905 1681,719.799 1681,733.113L1681,806.229Z" style="fill:rgb(226,232,235);fill-rule:nonzero;"/>
        <rect x="1264.75" y="789.54" width="415.54" height="7.861" style="fill:rgb(200,208,215);fill-rule:nonzero;"/>
        <path d="M1685.59,826.443L1260.17,826.443C1256.51,826.443 1253.52,823.453 1253.52,819.799L1253.52,803.14C1253.52,799.486 1256.51,796.497 1260.17,796.497L1685.59,796.497C1689.24,796.497 1692.23,799.486 1692.23,803.14L1692.23,819.799C1692.23,823.453 1689.24,826.443 1685.59,826.443Z" style="fill:rgb(226,232,235);fill-rule:nonzero;"/>
        <path d="M1292.83,777.243C1288.29,777.243 1284.61,773.564 1284.61,769.025L1284.61,733.09C1284.61,728.55 1288.29,724.871 1292.83,724.871C1297.37,724.871 1301.05,728.55 1301.05,733.09L1301.05,769.025C1301.05,773.564 1297.37,777.243 1292.83,777.243Z" style="fill:rgb(243,246,247);fill-rule:nonzero;"/>
        <path d="M1317.55,1387.92L1317.55,866.349C1317.55,861.81 1321.23,858.13 1325.77,858.13C1330.31,858.13 1333.99,861.81 1333.99,866.349L1333.99,1376.71C1328.84,1378.03 1324.22,1380.73 1320.57,1384.39C1319.47,1385.48 1318.46,1386.67 1317.55,1387.92Z" style="fill:rgb(251,169,165);fill-rule:nonzero;"/>
        <path d="M1325.77,1424.07C1321.23,1424.07 1317.55,1420.39 1317.55,1415.86L1317.55,1387.92C1318.46,1386.67 1319.47,1385.48 1320.57,1384.39C1324.22,1380.73 1328.84,1378.03 1333.99,1376.71L1333.99,1415.86C1333.99,1420.39 1330.31,1424.07 1325.77,1424.07Z" style="fill:rgb(253,157,145);fill-rule:nonzero;"/>
        <path d="M1212.37,1421.82L520.327,1421.82C513.325,1421.82 507.649,1416.15 507.649,1409.15L507.649,486.873C507.649,479.871 513.325,474.194 520.327,474.194L1212.37,474.194C1219.37,474.194 1225.05,479.871 1225.05,486.873L1225.05,1409.15C1225.05,1416.15 1219.37,1421.82 1212.37,1421.82Z" style="fill:rgb(121,156,161);fill-rule:nonzero;"/>
        <rect x="709.402" y="476.594" width="323.408" height="42.744" style="fill:rgb(172,178,196);fill-rule:nonzero;"/>
        <path d="M1103.3,1389.45L556.132,1389.45C554.331,1389.45 552.871,1387.99 552.871,1386.19L552.871,503.035C552.871,501.234 554.331,499.774 556.132,499.774L1176.57,499.774C1178.37,499.774 1179.83,501.234 1179.83,503.035L1179.83,1317.72L1103.3,1389.45Z" style="fill:white;fill-rule:nonzero;"/>
        <path d="M1179.83,1317.72L1106.57,1317.72C1104.76,1317.72 1103.3,1319.18 1103.3,1320.98L1103.3,1389.45L1179.83,1317.72Z" style="fill:white;fill-rule:nonzero;"/>
        <path d="M1106.57,1319.53C1105.77,1319.53 1105.12,1320.18 1105.12,1320.98L1105.12,1385.27L1175.25,1319.53L1106.57,1319.53ZM1103.3,1391.26C1103.06,1391.26 1102.82,1391.21 1102.58,1391.11C1101.92,1390.83 1101.49,1390.17 1101.49,1389.45L1101.49,1320.98C1101.49,1318.18 1103.77,1315.9 1106.57,1315.9L1179.83,1315.9C1180.57,1315.9 1181.24,1316.36 1181.51,1317.05C1181.79,1317.74 1181.61,1318.53 1181.07,1319.04L1104.54,1390.77C1104.2,1391.09 1103.76,1391.26 1103.3,1391.26Z" style="fill:rgb(190,197,217);fill-rule:nonzero;"/>
        <path d="M1122.66,842.375L739.049,842.375C734.978,842.375 731.677,839.2 731.677,835.285C731.677,831.369 734.978,828.195 739.049,828.195L1122.66,828.195C1126.73,828.195 1130.03,831.369 1130.03,835.285C1130.03,839.2 1126.73,842.375 1122.66,842.375Z" style="fill:rgb(193,226,235);fill-rule:nonzero;"/>
        <path d="M1098.45,877.402L739.049,877.402C734.978,877.402 731.677,874.228 731.677,870.312C731.677,866.396 734.978,863.221 739.049,863.221L1098.45,863.221C1102.52,863.221 1105.82,866.396 1105.82,870.312C1105.82,874.228 1102.52,877.402 1098.45,877.402Z" style="fill:rgb(193,226,235);fill-rule:nonzero;"/>
        <path d="M605.932,895.371C603.135,895.371 600.86,893.095 600.86,890.299L600.86,815.298C600.86,813.177 602.594,810.226 604.302,810.226L679.303,810.226C684.245,810.226 686.006,812.846 686.006,815.298L686.006,890.299C686.006,893.095 683.73,895.371 680.933,895.371L605.932,895.371Z" style="fill:white;fill-rule:nonzero;"/>
        <path d="M679.303,808.414L604.302,808.414C601.255,808.414 599.049,812.526 599.049,815.298L599.049,890.299C599.049,894.094 602.136,897.182 605.932,897.182L680.933,897.182C684.729,897.182 687.817,894.094 687.817,890.299L687.817,815.298C687.817,811.871 685.184,808.414 679.303,808.414ZM679.303,812.037C682.735,812.037 684.194,813.497 684.194,815.298L684.194,890.299C684.194,892.1 682.735,893.56 680.933,893.56L605.932,893.56C604.132,893.56 602.671,892.1 602.671,890.299L602.671,815.298C602.671,813.497 604.132,812.037 604.302,812.037L679.303,812.037Z" style="fill:rgb(190,197,217);fill-rule:nonzero;"/>
        <path d="M1122.66,976.582L739.049,976.582C734.978,976.582 731.677,973.407 731.677,969.491C731.677,965.576 734.978,962.401 739.049,962.401L1122.66,962.401C1126.73,962.401 1130.03,965.576 1130.03,969.491C1130.03,973.407 1126.73,976.582 1122.66,976.582Z" style="fill:rgb(193,226,235);fill-rule:nonzero;"/>
        <path d="M1098.45,1011.61L739.049,1011.61C734.978,1011.61 731.677,1008.43 731.677,1004.52C731.677,1000.6 734.978,997.428 739.049,997.428L1098.45,997.428C1102.52,997.428 1105.82,1000.6 1105.82,1004.52C1105.82,1008.43 1102.52,1011.61 1098.45,1011.61Z" style="fill:rgb(193,226,235);fill-rule:nonzero;"/>
        <path d="M605.932,1029.58C603.135,1029.58 600.86,1027.3 600.86,1024.51L600.86,949.505C600.86,947.384 602.594,944.433 604.302,944.433L679.303,944.433C684.245,944.433 686.006,947.053 686.006,949.505L686.006,1024.51C686.006,1027.3 683.73,1029.58 680.933,1029.58L605.932,1029.58Z" style="fill:white;fill-rule:nonzero;"/>
        <path d="M679.303,942.621L604.302,942.621C601.255,942.621 599.049,946.733 599.049,949.505L599.049,1024.51C599.049,1028.3 602.136,1031.39 605.932,1031.39L680.933,1031.39C684.729,1031.39 687.817,1028.3 687.817,1024.51L687.817,949.505C687.817,946.078 685.184,942.621 679.303,942.621ZM679.303,946.243C682.735,946.243 684.194,947.704 684.194,949.505L684.194,1024.51C684.194,1026.31 682.735,1027.77 680.933,1027.77L605.932,1027.77C604.132,1027.77 602.671,1026.31 602.671,1024.51L602.671,949.505C602.671,947.704 604.132,946.243 604.302,946.243L679.303,946.243Z" style="fill:rgb(190,197,217);fill-rule:nonzero;"/>
        <path d="M1122.66,1110.79L739.049,1110.79C734.978,1110.79 731.677,1107.61 731.677,1103.7C731.677,1099.78 734.978,1096.61 739.049,1096.61L1122.66,1096.61C1126.73,1096.61 1130.03,1099.78 1130.03,1103.7C1130.03,1107.61 1126.73,1110.79 1122.66,1110.79Z" style="fill:rgb(193,226,235);fill-rule:nonzero;"/>
        <path d="M1098.45,1145.82L739.049,1145.82C734.978,1145.82 731.678,1142.64 731.678,1138.73C731.678,1134.81 734.978,1131.63 739.049,1131.63L1098.45,1131.63C1102.52,1131.63 1105.82,1134.81 1105.82,1138.73C1105.82,1142.64 1102.52,1145.82 1098.45,1145.82Z" style="fill:rgb(193,226,235);fill-rule:nonzero;"/>
        <path d="M604.482,1163.78C602.485,1163.78 600.86,1162.16 600.86,1160.16L600.86,1082.26C600.86,1080.26 602.485,1078.64 604.482,1078.64L682.383,1078.64C684.381,1078.64 686.006,1080.26 686.006,1082.26L686.006,1160.16C686.006,1162.16 684.381,1163.78 682.383,1163.78L604.482,1163.78Z" style="fill:white;fill-rule:nonzero;"/>
        <path d="M682.383,1076.83L604.482,1076.83C601.486,1076.83 599.049,1079.27 599.049,1082.26L599.049,1160.16C599.049,1163.16 601.486,1165.6 604.482,1165.6L682.383,1165.6C685.379,1165.6 687.817,1163.16 687.817,1160.16L687.817,1082.26C687.817,1079.27 685.379,1076.83 682.383,1076.83ZM682.383,1080.45C683.383,1080.45 684.194,1081.26 684.194,1082.26L684.194,1160.16C684.194,1161.16 683.383,1161.97 682.383,1161.97L604.482,1161.97C603.482,1161.97 602.671,1161.16 602.671,1160.16L602.671,1082.26C602.671,1081.26 603.482,1080.45 604.482,1080.45L682.383,1080.45Z" style="fill:rgb(190,197,217);fill-rule:nonzero;"/>
        <path d="M1122.66,1245L739.049,1245C734.978,1245 731.677,1241.82 731.677,1237.91C731.677,1233.99 734.978,1230.82 739.049,1230.82L1122.66,1230.82C1126.73,1230.82 1130.03,1233.99 1130.03,1237.91C1130.03,1241.82 1126.73,1245 1122.66,1245Z" style="fill:rgb(193,226,235);fill-rule:nonzero;"/>
        <path d="M1098.45,1280.02L739.049,1280.02C734.978,1280.02 731.677,1276.85 731.677,1272.93C731.677,1269.02 734.978,1265.84 739.049,1265.84L1098.45,1265.84C1102.52,1265.84 1105.82,1269.02 1105.82,1272.93C1105.82,1276.85 1102.52,1280.02 1098.45,1280.02Z" style="fill:rgb(193,226,235);fill-rule:nonzero;"/>
        <path d="M604.482,1297.99C602.485,1297.99 600.86,1296.37 600.86,1294.37L600.86,1216.47C600.86,1214.47 602.485,1212.85 604.482,1212.85L682.383,1212.85C684.381,1212.85 686.006,1214.47 686.006,1216.47L686.006,1294.37C686.006,1296.37 684.381,1297.99 682.383,1297.99L604.482,1297.99Z" style="fill:white;fill-rule:nonzero;"/>
        <path d="M682.383,1211.03L604.482,1211.03C601.486,1211.03 599.049,1213.47 599.049,1216.47L599.049,1294.37C599.049,1297.37 601.486,1299.8 604.482,1299.8L682.383,1299.8C685.379,1299.8 687.817,1297.37 687.817,1294.37L687.817,1216.47C687.817,1213.47 685.379,1211.03 682.383,1211.03ZM682.383,1214.66C683.383,1214.66 684.194,1215.47 684.194,1216.47L684.194,1294.37C684.194,1295.37 683.383,1296.18 682.383,1296.18L604.482,1296.18C603.482,1296.18 602.671,1295.37 602.671,1294.37L602.671,1216.47C602.671,1215.47 603.482,1214.66 604.482,1214.66L682.383,1214.66Z" style="fill:rgb(190,197,217);fill-rule:nonzero;"/>
        <path d="M1032.31,481.839L710.771,481.839C708.174,481.839 706.048,479.714 706.048,477.116L706.048,466.695C706.048,464.096 708.174,461.971 710.771,461.971L1032.31,461.971C1034.91,461.971 1037.03,464.096 1037.03,466.695L1037.03,477.116C1037.03,479.714 1034.91,481.839 1032.31,481.839Z" style="fill:rgb(190,197,217);fill-rule:nonzero;"/>
        <path d="M892.843,550.907C880.21,550.907 872.076,550.843 871.894,550.841C871.537,550.844 830.513,551.167 788.804,550.279C703.247,548.459 698.264,543.516 696.136,541.405C694.971,540.25 694.726,539.022 694.726,538.195L694.726,486.428C694.726,481.36 696.311,477.219 699.437,474.124C704.899,468.715 713.053,468.738 713.416,468.735L713.354,475.074C713.308,475.074 707.425,475.106 703.871,478.655C701.984,480.54 701.066,483.083 701.066,486.428L701.066,537.201C703.947,538.731 718.345,542.459 789.552,543.954C830.951,544.824 871.49,544.506 871.894,544.502C872.351,544.506 912.869,544.824 954.259,544.024C1024.97,542.655 1039.72,539.174 1042.78,537.708L1042.78,486.428C1042.78,483.082 1041.86,480.54 1039.97,478.655C1036.42,475.112 1030.55,475.074 1030.47,475.074L1030.43,468.735C1030.78,468.742 1038.94,468.715 1044.4,474.124C1047.53,477.219 1049.11,481.36 1049.11,486.428L1049.11,538.806C1049.11,539.609 1048.88,540.8 1047.75,541.915C1045.72,543.932 1040.96,548.654 955.248,550.345C931.928,550.805 908.799,550.907 892.843,550.907Z" style="fill:rgb(190,197,217);fill-rule:nonzero;"/>
        <path d="M637.888,884.62L637.778,884.619C636.177,884.581 634.717,883.699 633.935,882.302L612.52,844.001C611.299,841.818 612.079,839.06 614.262,837.839C616.445,836.619 619.204,837.401 620.424,839.582L638.103,871.2L668.365,822.753C669.69,820.629 672.483,819.986 674.604,821.311C676.725,822.635 677.37,825.429 676.046,827.549L641.728,882.491C640.9,883.818 639.447,884.62 637.888,884.62Z" style="fill:rgb(255,134,129);fill-rule:nonzero;"/>
        <path d="M636.983,1017.81L636.872,1017.81C635.272,1017.77 633.811,1016.88 633.03,1015.49L611.614,977.187C610.394,975.004 611.174,972.246 613.357,971.025C615.539,969.805 618.298,970.587 619.518,972.767L637.198,1004.39L667.459,955.939C668.784,953.815 671.577,953.172 673.698,954.497C675.82,955.821 676.465,958.615 675.14,960.736L640.823,1015.68C639.994,1017 638.541,1017.81 636.983,1017.81Z" style="fill:rgb(255,134,129);fill-rule:nonzero;"/>
        <path d="M637.888,1285.64L637.778,1285.64C636.177,1285.6 634.717,1284.72 633.935,1283.32L612.52,1245.02C611.299,1242.84 612.079,1240.08 614.262,1238.86C616.444,1237.64 619.204,1238.42 620.424,1240.6L638.103,1272.22L668.364,1223.77C669.69,1221.65 672.482,1221.01 674.604,1222.33C676.725,1223.65 677.37,1226.45 676.046,1228.57L641.728,1283.51C640.9,1284.84 639.446,1285.64 637.888,1285.64Z" style="fill:rgb(255,134,129);fill-rule:nonzero;"/>
        <path d="M1118.79,705.034L609.793,705.034C603.585,705.034 598.553,701.859 598.553,697.944C598.553,694.028 603.585,690.853 609.793,690.853L1118.79,690.853C1125,690.853 1130.03,694.028 1130.03,697.944C1130.03,701.859 1125,705.034 1118.79,705.034Z" style="fill:rgb(193,226,235);fill-rule:nonzero;"/>
        <path d="M1081.88,739.301L609.793,739.301C603.585,739.301 598.553,736.127 598.553,732.211C598.553,728.295 603.585,725.12 609.793,725.12L1081.88,725.12C1088.08,725.12 1093.12,728.295 1093.12,732.211C1093.12,736.127 1088.08,739.301 1081.88,739.301Z" style="fill:rgb(193,226,235);fill-rule:nonzero;"/>
        <path d="M967.26,773.568L609.793,773.568C603.585,773.568 598.553,770.394 598.553,766.478C598.553,762.562 603.585,759.387 609.793,759.387L967.26,759.387C973.468,759.387 978.5,762.562 978.5,766.478C978.5,770.394 973.468,773.568 967.26,773.568Z" style="fill:rgb(193,226,235);fill-rule:nonzero;"/>
        <path d="M1037.11,628.881L706.734,628.881C698.538,628.881 691.895,622.237 691.895,614.042L691.895,614.041C691.895,605.846 698.538,599.202 706.734,599.202L1037.11,599.202C1045.3,599.202 1051.95,605.846 1051.95,614.041L1051.95,614.042C1051.95,622.237 1045.3,628.881 1037.11,628.881Z" style="fill:rgb(193,226,235);fill-rule:nonzero;"/>
        <path d="M848.972,1102.01C854.377,1088.36 871.15,1048 886.492,1032.26C890.242,1028.41 889.217,1022.02 884.572,1019.32L877.752,1015.35C870.884,1011.36 862.053,1014.1 858.715,1021.31C849.39,1041.45 834.527,1079.85 844.627,1102.09C845.49,1103.99 848.205,1103.95 848.972,1102.01Z" style="fill:rgb(121,156,161);fill-rule:nonzero;"/>
        <path d="M948.557,1064.11C869.296,1064.31 845.45,1101.81 845.45,1101.81C845.45,1101.81 821.409,1064.43 742.148,1064.64C662.887,1064.84 600.351,1147.57 600.615,1249.95C600.879,1352.33 725.051,1479.16 804.313,1478.95C804.313,1478.95 832.115,1481.08 846.399,1470.59C860.737,1481.01 888.528,1478.73 888.528,1478.73C967.789,1478.53 1091.31,1351.06 1091.04,1248.68C1090.78,1146.31 1027.82,1063.9 948.557,1064.11Z" style="fill:rgb(255,134,129);fill-rule:nonzero;"/>
        <path d="M712.925,1197.28C690.962,1197.28 673.132,1179.5 673.076,1157.53C673.019,1135.52 690.815,1117.63 712.824,1117.57L712.928,1117.57C734.892,1117.57 752.722,1135.35 752.777,1157.32C752.835,1179.33 735.039,1197.22 713.03,1197.28L712.925,1197.28Z" style="fill:rgb(255,158,154);fill-rule:nonzero;"/>
        <path d="M676.942,1258.48C663.765,1258.48 653.067,1247.81 653.032,1234.63C652.999,1221.42 663.676,1210.69 676.882,1210.65L676.944,1210.65C690.122,1210.65 700.82,1221.32 700.854,1234.5C700.888,1247.71 690.211,1258.44 677.004,1258.48L676.942,1258.48Z" style="fill:rgb(255,158,154);fill-rule:nonzero;"/>
        <path d="M1194.7,1629.93L1095.3,1629.93C995.378,1629.93 914.372,1548.92 914.372,1449L914.372,948.269C914.372,887.63 963.529,838.473 1024.17,838.473L1265.83,838.473C1326.47,838.473 1375.63,887.63 1375.63,948.269L1375.63,1449C1375.63,1548.92 1294.62,1629.93 1194.7,1629.93Z" style="fill:rgb(143,208,214);fill-rule:nonzero;"/>
        <path d="M999.037,1472.77C985.191,1464.78 985.191,1444.79 999.037,1436.8L1044.77,1410.39L1090.5,1383.99C1104.35,1376 1121.65,1385.99 1121.65,1401.98L1121.65,1507.59C1121.65,1523.58 1104.35,1533.57 1090.5,1525.58L1044.77,1499.17L999.037,1472.77Z" style="fill:rgb(1,174,179);fill-rule:nonzero;"/>
        <path d="M1290.96,1436.8C1304.81,1444.79 1304.81,1464.78 1290.96,1472.77L1245.23,1499.17L1199.5,1525.58C1185.65,1533.57 1168.35,1523.58 1168.35,1507.59L1168.35,1401.98C1168.35,1385.99 1185.65,1376 1199.5,1383.99L1245.23,1410.39L1290.96,1436.8Z" style="fill:rgb(1,174,179);fill-rule:nonzero;"/>
        <path d="M1309.1,1285.07L980.899,1285.07C965.073,1285.07 952.243,1272.24 952.243,1256.42L952.243,963.249C952.243,928.074 980.758,899.559 1015.93,899.559L1274.07,899.559C1309.24,899.559 1337.76,928.074 1337.76,963.249L1337.76,1256.42C1337.76,1272.24 1324.93,1285.07 1309.1,1285.07Z" style="fill:rgb(1,174,179);fill-rule:nonzero;"/>
        <path d="M1291.48,1223.47L998.518,1223.47C992.524,1223.47 987.619,1218.57 987.619,1212.58L987.619,966.399C987.619,960.404 992.524,955.5 998.518,955.5L1291.48,955.5C1297.48,955.5 1302.38,960.404 1302.38,966.399L1302.38,1212.58C1302.38,1218.57 1297.48,1223.47 1291.48,1223.47Z" style="fill:rgb(200,227,230);fill-rule:nonzero;"/>
        <path d="M1145,866.955C1184.83,866.955 1217.66,854.516 1222.28,838.473L1067.72,838.473C1072.34,854.516 1105.17,866.955 1145,866.955Z" style="fill:rgb(1,174,179);fill-rule:nonzero;"/>
        <rect x="1106.3" y="595.771" width="77.4" height="253.882" style="fill:rgb(200,227,230);fill-rule:nonzero;"/>
        <path d="M1062.11,1111.36C1062.11,1114.44 1062.54,1117.26 1063.38,1119.8C1064.23,1122.34 1065.49,1124.51 1067.16,1126.3C1068.82,1128.1 1070.89,1129.5 1073.35,1130.5C1075.82,1131.5 1078.67,1132 1081.9,1132C1084.93,1132 1087.71,1131.49 1090.26,1130.46C1092.8,1129.43 1094.98,1128 1096.8,1126.15C1098.62,1124.3 1100.05,1122.13 1101.07,1119.64C1102.1,1117.15 1102.61,1114.44 1102.61,1111.52C1102.61,1108.34 1102.13,1105.47 1101.15,1102.93C1100.18,1100.39 1098.79,1098.24 1096.99,1096.47C1095.2,1094.69 1093.04,1093.35 1090.53,1092.42C1088.01,1091.5 1085.24,1091.04 1082.21,1091.04C1079.18,1091.04 1076.43,1091.55 1073.97,1092.58C1071.51,1093.6 1069.4,1095.03 1067.66,1096.85C1065.91,1098.67 1064.55,1100.83 1063.58,1103.32C1062.6,1105.81 1062.11,1108.49 1062.11,1111.36ZM1077.59,1075.41C1076.87,1076.28 1076.19,1077.1 1075.55,1077.87C1074.91,1078.64 1074.28,1079.44 1073.66,1080.26C1075.82,1079.18 1078.14,1078.33 1080.63,1077.72C1083.12,1077.1 1085.83,1076.79 1088.75,1076.79C1092.96,1076.79 1097.06,1077.48 1101.04,1078.87C1105.01,1080.26 1108.52,1082.35 1111.55,1085.15C1114.57,1087.94 1117.01,1091.42 1118.86,1095.58C1120.71,1099.74 1121.63,1104.59 1121.63,1110.13C1121.63,1115.32 1120.68,1120.18 1118.78,1124.72C1116.88,1129.27 1114.21,1133.23 1110.78,1136.62C1107.34,1140.01 1103.19,1142.68 1098.34,1144.63C1093.49,1146.58 1088.14,1147.55 1082.29,1147.55C1076.33,1147.55 1070.99,1146.6 1066.27,1144.71C1061.55,1142.81 1057.52,1140.15 1054.18,1136.74C1050.84,1133.32 1048.29,1129.22 1046.52,1124.42C1044.75,1119.62 1043.86,1114.29 1043.86,1108.44C1043.86,1103.2 1044.93,1097.83 1047.06,1092.31C1049.19,1086.79 1052.49,1081.05 1056.95,1075.1L1083.52,1039.45C1084.44,1038.21 1085.79,1037.16 1087.56,1036.29C1089.33,1035.42 1091.37,1034.98 1093.68,1034.98L1110.62,1034.98L1077.59,1075.41Z" style="fill:rgb(1,114,128);fill-rule:nonzero;"/>
        <path d="M1133.34,1135.85C1133.34,1134.26 1133.63,1132.75 1134.22,1131.31C1134.81,1129.87 1135.62,1128.64 1136.65,1127.61C1137.67,1126.59 1138.9,1125.76 1140.34,1125.15C1141.78,1124.53 1143.32,1124.22 1144.96,1124.22C1146.6,1124.22 1148.13,1124.53 1149.54,1125.15C1150.95,1125.76 1152.19,1126.59 1153.24,1127.61C1154.29,1128.64 1155.13,1129.87 1155.74,1131.31C1156.36,1132.75 1156.67,1134.26 1156.67,1135.85C1156.67,1137.49 1156.36,1139.02 1155.74,1140.43C1155.13,1141.84 1154.29,1143.06 1153.24,1144.09C1152.19,1145.12 1150.95,1145.93 1149.54,1146.51C1148.13,1147.1 1146.6,1147.4 1144.96,1147.4C1143.32,1147.4 1141.78,1147.1 1140.34,1146.51C1138.9,1145.93 1137.67,1145.12 1136.65,1144.09C1135.62,1143.06 1134.81,1141.84 1134.22,1140.43C1133.63,1139.02 1133.34,1137.49 1133.34,1135.85Z" style="fill:rgb(1,114,128);fill-rule:nonzero;"/>
        <path d="M1226.5,1068.55C1226.5,1065.52 1226.04,1062.82 1225.12,1060.43C1224.19,1058.04 1222.88,1056.03 1221.19,1054.38C1219.5,1052.74 1217.48,1051.49 1215.15,1050.61C1212.81,1049.74 1210.26,1049.3 1207.48,1049.3C1204.61,1049.3 1202.02,1049.78 1199.71,1050.73C1197.4,1051.68 1195.42,1053 1193.78,1054.69C1192.14,1056.39 1190.88,1058.4 1190.01,1060.74C1189.13,1063.07 1188.7,1065.63 1188.7,1068.4C1188.7,1074.61 1190.3,1079.35 1193.51,1082.61C1196.72,1085.87 1201.27,1087.49 1207.18,1087.49C1210.26,1087.49 1213,1087.01 1215.42,1086.03C1217.83,1085.06 1219.85,1083.72 1221.5,1082.03C1223.14,1080.33 1224.39,1078.33 1225.23,1076.02C1226.08,1073.71 1226.5,1071.22 1226.5,1068.55ZM1213.95,1103.13C1214.82,1102.05 1215.65,1101 1216.42,1099.97C1217.19,1098.94 1217.93,1097.92 1218.65,1096.89C1216.08,1098.53 1213.26,1099.78 1210.18,1100.62C1207.1,1101.47 1203.87,1101.89 1200.48,1101.89C1196.63,1101.89 1192.85,1101.23 1189.16,1099.89C1185.46,1098.56 1182.18,1096.54 1179.3,1093.85C1176.43,1091.15 1174.1,1087.82 1172.33,1083.84C1170.56,1079.86 1169.68,1075.2 1169.68,1069.86C1169.68,1064.88 1170.6,1060.21 1172.45,1055.85C1174.3,1051.49 1176.89,1047.66 1180.23,1044.37C1183.56,1041.09 1187.57,1038.5 1192.24,1036.6C1196.91,1034.7 1202.07,1033.75 1207.72,1033.75C1213.41,1033.75 1218.53,1034.65 1223.08,1036.44C1227.62,1038.24 1231.5,1040.76 1234.7,1043.99C1237.91,1047.22 1240.38,1051.1 1242.1,1055.62C1243.82,1060.13 1244.68,1065.09 1244.68,1070.48C1244.68,1073.92 1244.38,1077.18 1243.79,1080.26C1243.2,1083.34 1242.37,1086.3 1241.29,1089.15C1240.21,1092 1238.9,1094.78 1237.36,1097.5C1235.82,1100.23 1234.1,1102.92 1232.2,1105.59L1206.71,1141.93C1205.84,1143.17 1204.53,1144.2 1202.79,1145.05C1201.04,1145.9 1199.06,1146.32 1196.86,1146.32L1179.38,1146.32L1213.95,1103.13Z" style="fill:rgb(1,114,128);fill-rule:nonzero;"/>
        <path d="M1125.39,674.685C1116.97,689.784 1128.05,708.335 1145.34,708.076C1162.62,707.816 1173.15,688.942 1164.28,674.101L1144.33,640.71L1125.39,674.685Z" style="fill:rgb(255,134,129);fill-rule:nonzero;"/>
        <path d="M1640.37,342.878C1640.37,342.878 1630.58,412.674 1610.17,415.996C1589.77,419.319 1546.85,386.628 1546.85,386.628L1586.49,319.218L1640.37,342.878Z" style="fill:rgb(250,188,167);fill-rule:nonzero;"/>
        <path d="M1556.38,536.396C1556.38,536.396 1553.99,595.499 1565.9,606.044C1577.81,616.589 1681.76,572.643 1681.76,572.643L1674.51,553.899C1674.51,553.899 1591.14,579.625 1587.49,576.789C1583.83,573.954 1598.08,519.786 1598.08,519.786L1556.38,536.396Z" style="fill:rgb(235,169,148);fill-rule:nonzero;"/>
        <path d="M1534.61,394.538C1534.61,394.538 1510.71,387.275 1501.09,402.211C1491.48,417.147 1486.33,447.446 1468.44,453.303C1450.55,459.16 1440.03,491.721 1448.53,513.253C1457.02,534.785 1460.2,543.4 1456.99,555.261C1453.78,567.123 1491.11,583.163 1511.32,557.551C1531.53,531.939 1567.56,450.84 1556.22,421.839C1544.87,392.839 1534.61,394.538 1534.61,394.538Z" style="fill:rgb(69,72,79);fill-rule:nonzero;"/>
        <path d="M1551.72,400.634C1553.42,397.523 1552.27,393.626 1549.16,391.93L1540.83,387.391C1537.72,385.696 1533.82,386.843 1532.12,389.955C1530.43,393.067 1531.58,396.964 1534.69,398.66L1543.02,403.198C1546.13,404.894 1550.03,403.746 1551.72,400.634Z" style="fill:rgb(1,206,211);fill-rule:nonzero;"/>
        <path d="M1557.53,385.757C1557.53,385.757 1534.83,428.673 1527.83,432.315C1526.92,432.792 1533.07,458.037 1554.77,460.131C1584.99,463.047 1586.38,443.947 1586.38,443.947C1586.38,443.947 1579.4,436.664 1579.09,435.97C1575.21,427.346 1584.84,399.647 1584.84,399.647L1557.53,385.757Z" style="fill:rgb(250,188,167);fill-rule:nonzero;"/>
        <path d="M1779.75,958.227L1778.83,982.156C1778.71,985.156 1780.63,987.665 1783.1,987.76L1863.06,990.829L1863.17,987.818C1863.26,985.424 1861.77,983.262 1859.49,982.524C1849.95,979.434 1825.72,971.265 1813.69,959.53C1793.96,940.29 1779.75,958.227 1779.75,958.227Z" style="fill:rgb(69,72,79);fill-rule:nonzero;"/>
        <path d="M1487.01,507.837C1494.2,447.261 1497.3,437.284 1527.83,432.315C1527.83,432.315 1549.65,457.938 1568.18,455.94C1578.38,454.841 1579.09,435.97 1579.09,435.97C1579.09,435.97 1583.59,440.282 1595.75,452.126C1615.17,471.057 1634.78,498.425 1612.41,517.459C1605.65,523.209 1623.48,617.493 1623.48,617.493L1516.14,629.068C1516.14,629.068 1482.58,545.224 1487.01,507.837Z" style="fill:rgb(121,156,161);fill-rule:nonzero;"/>
        <path d="M1623.48,617.493C1623.48,617.493 1741.35,653.628 1785.26,674.078C1794.13,678.211 1800.95,686.27 1802.29,695.968C1809.29,746.693 1813.69,959.53 1813.69,959.53L1779.75,958.227L1755.82,759.446L1540.86,626.402L1623.48,617.493Z" style="fill:rgb(0,143,162);fill-rule:nonzero;"/>
        <path d="M1488.45,543.295C1488.45,543.295 1495.03,602.599 1509.28,609.663C1523.53,616.728 1613.77,551.714 1613.77,551.714L1604.33,535.307C1604.33,535.307 1528.78,577.283 1524.51,575.501C1520.25,573.718 1524.35,516.363 1524.35,516.363L1488.45,543.295Z" style="fill:rgb(250,188,167);fill-rule:nonzero;"/>
        <path d="M1509.86,443.407C1524.35,449.763 1527.68,481.935 1526.21,535.965C1526.18,537.007 1525.46,537.924 1524.45,538.177L1487.45,544.411C1486.55,544.635 1485.66,544.039 1485.56,543.118C1484.31,532.359 1479.7,475.764 1489.76,458.44C1494.11,450.945 1501.92,439.927 1509.86,443.407Z" style="fill:rgb(149,188,193);fill-rule:nonzero;"/>
        <path d="M1756.98,472.789L1751.88,482.788C1751.63,483.296 1751.12,483.631 1750.55,483.669L1731.25,484.969C1730,485.053 1729.13,483.75 1729.69,482.63L1734.66,472.639C1734.92,472.124 1735.43,471.783 1736,471.744L1755.43,470.436C1756.69,470.351 1757.55,471.668 1756.98,472.789Z" style="fill:rgb(1,173,193);fill-rule:nonzero;"/>
        <path d="M1631.29,303.302C1618.98,306.286 1618.03,283.269 1578.92,287.486C1551.76,290.414 1543.1,302.895 1529.66,335.448C1511.09,380.414 1543.68,400.128 1555.23,396.158C1583.42,386.469 1581.58,369.426 1581.58,369.426C1581.58,369.426 1590.41,351.509 1592.23,351.991C1613.71,357.684 1638.1,344.519 1638.1,344.519C1638.1,344.519 1639.21,360.605 1648.5,358.971C1657.79,357.338 1656.91,337.441 1655.55,328.748C1654.2,320.056 1643.8,300.27 1631.29,303.302Z" style="fill:rgb(69,72,79);fill-rule:nonzero;"/>
        <path d="M1699.18,571.94L1628.34,579.577C1627.06,579.716 1626.24,578.235 1627.05,577.223L1706.82,480.662C1707.06,480.358 1707.41,480.163 1707.8,480.121L1778.64,472.483C1779.92,472.344 1780.74,473.825 1779.93,474.837L1700.16,571.399C1699.92,571.703 1699.56,571.898 1699.18,571.94Z" style="fill:rgb(69,72,79);fill-rule:nonzero;"/>
        <path d="M1718.15,552.096C1719.34,549.071 1714.98,542.748 1714.98,542.748C1714.74,542.222 1713.86,542.426 1713.05,543.203C1710.05,546.078 1702.91,552.728 1702.76,554.22C1702.2,560.038 1704.03,566.693 1705.36,566.196C1709.06,564.812 1717.2,554.509 1718.15,552.096Z" style="fill:rgb(250,188,167);fill-rule:nonzero;"/>
        <path d="M1610.13,555.137C1598.76,562.395 1590.22,544.512 1602.6,535.602C1608.58,531.296 1618.34,511.781 1647.58,521.86C1649.51,522.526 1650.13,531.563 1650.51,535.39C1650.61,536.424 1649.82,537.32 1648.78,537.356C1648.78,537.356 1621.18,535.27 1625.02,539.836C1625.37,540.253 1645.29,542.45 1628.23,546.533C1610.93,550.673 1614.35,552.44 1610.13,555.137Z" style="fill:rgb(250,188,167);fill-rule:nonzero;"/>
        <path d="M1633,935.155L1618.87,955.183C1617.08,957.593 1617.25,960.745 1619.24,962.223L1683.49,1009.91L1685.28,1007.49C1686.71,1005.56 1686.7,1002.93 1685.23,1001.04C1679.1,993.098 1663.72,972.675 1660.42,956.195C1655.01,929.178 1633,935.155 1633,935.155Z" style="fill:rgb(69,72,79);fill-rule:nonzero;"/>
        <path d="M1593.65,356.259C1593.95,355.329 1593.75,354.32 1593.1,353.589C1590.85,351.061 1585.23,346.04 1579.83,351.724C1573.9,357.966 1579.12,368.243 1585.1,371.884C1586.61,372.8 1588.58,372.009 1589.12,370.333L1593.65,356.259Z" style="fill:rgb(250,188,167);fill-rule:nonzero;"/>
        <path d="M1517.93,628.874C1516.84,628.992 1515.93,629.773 1515.65,630.839C1512.38,643.255 1495.38,716.878 1551.03,720.639C1618.52,725.201 1683.35,740.267 1697.46,743.693C1698.98,744.063 1699.83,745.665 1699.31,747.144L1633.66,933.296C1633.27,934.399 1633.65,935.627 1634.6,936.317L1658.09,953.472C1659.38,954.414 1661.2,954.009 1661.97,952.609L1768.08,759.701C1768.15,759.572 1768.2,759.461 1768.25,759.321C1769.33,756.272 1781.89,718.291 1744.72,698.071C1707.71,677.942 1602.74,625.785 1593.39,621.142C1592.94,620.917 1592.45,620.839 1591.95,620.893L1517.93,628.874Z" style="fill:rgb(0,174,194);fill-rule:nonzero;"/>
        <path d="M1746.79,484.689C1747,485.911 1748.16,486.729 1749.38,486.517C1750.6,486.305 1751.42,485.143 1751.21,483.922C1751,482.7 1749.84,481.882 1748.62,482.094C1747.39,482.306 1746.58,483.467 1746.79,484.689Z" style="fill:rgb(1,173,193);fill-rule:nonzero;"/>
        <path d="M1735.5,486.539C1735.71,487.76 1736.87,488.579 1738.09,488.367C1739.32,488.155 1740.14,486.993 1739.92,485.772C1739.71,484.55 1738.55,483.732 1737.33,483.944C1736.11,484.155 1735.29,485.317 1735.5,486.539Z" style="fill:rgb(1,173,193);fill-rule:nonzero;"/>
        <path d="M405.412,1564.83L405.412,1591.68C405.412,1595.04 407.665,1597.77 410.444,1597.77L500.132,1597.77L500.132,1594.39C500.132,1591.71 498.362,1589.35 495.778,1588.62C484.956,1585.57 456.709,1576.73 442.728,1564.1C419.806,1543.4 405.412,1564.83 405.412,1564.83Z" style="fill:rgb(69,72,79);fill-rule:nonzero;"/>
        <path d="M263.492,1526.57L249.028,1549.18C247.214,1552.02 247.642,1555.53 249.983,1557.03L325.537,1605.36L327.357,1602.51C328.803,1600.25 328.583,1597.31 326.799,1595.3C319.327,1586.9 300.295,1564.23 295.321,1546.06C287.167,1516.27 263.492,1526.57 263.492,1526.57Z" style="fill:rgb(69,72,79);fill-rule:nonzero;"/>
        <path d="M477.614,1115.52L443.876,1565.1L405.271,1565.1L386.92,1270.79L395.39,1089.4L477.614,1115.52Z" style="fill:rgb(235,123,119);fill-rule:nonzero;"/>
        <path d="M323.755,1107.97C315.401,1228.44 363.086,1254.92 262.622,1527.93L296.148,1548.72C296.148,1548.72 428.562,1356.43 428.562,1115.52L323.755,1107.97Z" style="fill:rgb(250,147,142);fill-rule:nonzero;"/>
        <path d="M446.194,797.634C446.194,797.634 467.253,826.685 447.605,874.917C446.079,878.662 419.052,874.053 419.052,874.053C419.052,874.053 429.57,889.566 435.618,896.724C439.927,901.824 456.406,932.658 426.797,920.015C415.427,915.16 360.123,928.702 371.386,905.566C381.05,885.716 386.922,868.493 386.922,868.493C386.922,868.493 383.379,766.226 446.194,797.634Z" style="fill:rgb(250,188,167);fill-rule:nonzero;"/>
        <path d="M379.488,888.436C312.46,931.948 322.583,1115.52 322.583,1115.52L477.614,1115.52C477.614,1115.52 489.963,899.643 435.618,897.362C435.618,897.362 429.772,913.705 412.934,912.185C396.095,910.665 379.488,888.436 379.488,888.436Z" style="fill:rgb(1,143,161);fill-rule:nonzero;"/>
        <path d="M382.493,880.305C382.493,880.305 355.08,906.137 343.886,930.969C332.692,955.801 317.145,1103.42 318.275,1134.51C319.405,1165.6 306.409,1351.05 305.844,1364.83L364.041,1364.83C364.041,1364.83 430.148,1071.56 419.978,955.57L382.493,880.305Z" style="fill:rgb(197,218,237);fill-rule:nonzero;"/>
        <path d="M459.595,766.159C458.164,777.486 454.71,794.661 446.836,797.979L446.746,797.99C445.675,797.612 419.078,788.563 402.315,817.058C396.281,827.317 397.124,840.152 394.889,848.354C391.125,862.164 386.922,868.493 386.922,868.493C385.359,865.155 351.631,866.72 351.631,807.56C351.631,794.385 363.432,791.297 365.041,788.975C366.808,786.424 365.69,776.788 368.099,773.918C382.839,756.359 418.916,771.095 429.738,761.449C437.69,754.362 461.498,751.097 459.595,766.159Z" style="fill:rgb(69,72,79);fill-rule:nonzero;"/>
        <path d="M406.391,819.286C406.691,818.343 406.479,817.32 405.819,816.583C403.534,814.029 397.814,808.963 392.364,814.746C386.38,821.097 391.707,831.494 397.786,835.161C399.314,836.083 401.308,835.273 401.849,833.572L406.391,819.286Z" style="fill:rgb(250,188,167);fill-rule:nonzero;"/>
        <path d="M365.37,1162.04C358.748,1138.51 345.747,1074.91 347.466,1047.33C350.127,1004.6 363.443,973.493 363.443,973.493L332.023,965.464C332.023,965.464 313.337,1015.69 316.342,1066.11C318.444,1101.39 343.009,1153.53 347.333,1170.51C349.423,1178.71 346.079,1212.62 379.251,1225.32C381.443,1226.16 388.66,1218.67 391.815,1215.58C392.667,1214.74 392.629,1213.37 391.742,1212.57C391.742,1212.57 365.907,1194.04 372.663,1192.86C373.28,1192.75 392.431,1205.51 380.427,1189.33C368.256,1172.92 365.37,1162.04 365.37,1162.04Z" style="fill:rgb(250,188,167);fill-rule:nonzero;"/>
        <path d="M311.071,1046.29C311.071,1046.29 324.683,892.131 374.866,908.473C401.969,917.299 348.295,1043.41 348.295,1043.41L367.431,1156.6C364.008,1158.1 347.64,1165.86 342.571,1166.73C335.791,1167.9 314.461,1060.36 311.071,1046.29Z" style="fill:rgb(218,236,255);fill-rule:nonzero;"/>
        <path d="M603.886,991.83C599.648,998.924 524.026,1009.74 518.188,1008.72C510.945,1007.44 463.918,949.631 463.918,949.631L444.517,968.555C444.517,968.555 492.044,1045.29 506.992,1048.94C534.096,1055.55 606.87,1016.29 606.87,1016.29C609.975,1015.62 634.085,1022.22 635.825,1011.82C638.435,996.222 642.522,980.104 622.821,979.733C622.821,979.733 629.302,961.632 615.392,962.167C615.392,962.167 617.04,975.433 613.284,978.052C605.876,983.218 603.886,991.83 603.886,991.83Z" style="fill:rgb(250,188,167);fill-rule:nonzero;"/>
        <path d="M587.655,994.231L583.249,1034.99C583.249,1034.99 529.929,1053.18 508.588,1049.47C487.247,1045.76 442.481,970.862 442.481,970.862L444.858,903.326C444.858,903.326 470.517,936.896 478.82,951.216C487.122,965.536 517.537,1005.25 520.93,1005.55C524.323,1005.86 587.655,994.231 587.655,994.231Z" style="fill:rgb(178,197,214);fill-rule:nonzero;"/>
        <path d="M435.618,897.362L435.618,952.152C435.618,952.152 447.642,1317.19 413.426,1364.83L469.475,1364.83C469.475,1364.83 496.694,1077.31 474.478,952.228C467.389,912.313 455.986,899.758 435.618,896.724" style="fill:rgb(197,218,237);fill-rule:nonzero;"/>
        <path d="M383.538,877.64L375.74,887.111L388.337,923.034L396.53,923.034L393.125,934.789L419.978,955.57L383.538,877.64Z" style="fill:rgb(236,244,252);fill-rule:nonzero;"/>
        <path d="M445.383,898.063L434.642,895.543L435.724,955.57L443.991,921.229L440.012,915.406L445.383,911.624L445.383,898.063Z" style="fill:rgb(236,244,252);fill-rule:nonzero;"/>
        <path d="M855.823,368.748L888.02,368.748L888.02,329.508C888.02,327.283 889.822,325.483 892.045,325.483L931.283,325.483L931.283,293.286L892.045,293.286C889.822,293.286 888.02,291.486 888.02,289.261L888.02,250.025L855.823,250.025L855.823,289.261C855.823,291.486 854.021,293.286 851.798,293.286L812.558,293.286L812.558,325.483L851.798,325.483C854.021,325.483 855.823,327.283 855.823,329.508L855.823,368.748ZM892.045,376.797L851.798,376.797C849.575,376.797 847.774,374.997 847.774,372.772L847.774,333.532L808.533,333.532C806.311,333.532 804.509,331.732 804.509,329.508L804.509,289.261C804.509,287.037 806.311,285.237 808.533,285.237L847.774,285.237L847.774,246C847.774,243.776 849.575,241.976 851.798,241.976L892.045,241.976C894.267,241.976 896.069,243.776 896.069,246L896.069,285.237L935.307,285.237C937.53,285.237 939.332,287.037 939.332,289.261L939.332,329.508C939.332,331.732 937.53,333.532 935.307,333.532L896.069,333.532L896.069,372.772C896.069,374.997 894.267,376.797 892.045,376.797Z" style="fill:rgb(255,134,129);fill-rule:nonzero;"/>
        <path d="M1610.39,1416.81C1595.46,1420.38 1585.51,1432.92 1586.11,1441.73C1586.68,1450.15 1596.5,1449.81 1598.07,1457.94C1600.53,1470.72 1577.65,1478.52 1576.36,1492.67C1575.04,1507.28 1598.69,1507.11 1604.41,1524.01C1611.43,1544.74 1580.47,1558.51 1583.1,1581.22C1585.63,1602.95 1618.15,1626.2 1652.19,1617.91C1682.24,1610.59 1703.4,1581.15 1699.17,1562.03C1694.22,1539.69 1656.79,1541.27 1655,1519.6C1653.39,1500.15 1682.72,1488.7 1676.82,1472.74C1671.89,1459.4 1649.85,1463.3 1642.36,1446.31C1637.43,1435.16 1644.2,1427.27 1635.62,1420.66C1629.7,1416.11 1619.65,1414.59 1610.39,1416.81Z" style="fill:rgb(143,208,214);fill-rule:nonzero;"/>
        <path d="M1650.84,1664.03C1650.52,1664.03 1650.2,1663.95 1649.9,1663.8C1648.92,1663.28 1648.54,1662.07 1649.05,1661.08C1668.53,1623.82 1615.4,1444.51 1614.86,1442.7C1614.55,1441.64 1615.15,1440.52 1616.22,1440.2C1617.28,1439.88 1618.4,1440.49 1618.72,1441.55C1620.94,1448.99 1672.84,1624.25 1652.62,1662.94C1652.26,1663.63 1651.56,1664.03 1650.84,1664.03Z" style="fill:rgb(195,227,230);fill-rule:nonzero;"/>
        <path d="M1652.39,1592.13C1652.06,1592.13 1651.72,1592.05 1651.41,1591.88L1609.77,1568.56C1608.8,1568.02 1608.45,1566.79 1609,1565.82C1609.54,1564.85 1610.77,1564.51 1611.74,1565.05L1651.89,1587.53L1674.38,1559.47C1675.07,1558.61 1676.34,1558.47 1677.21,1559.16C1678.07,1559.86 1678.21,1561.12 1677.52,1561.99L1653.97,1591.38C1653.57,1591.87 1652.99,1592.13 1652.39,1592.13Z" style="fill:rgb(195,227,230);fill-rule:nonzero;"/>
        <path d="M1632.59,1502.07C1632.36,1502.07 1632.13,1502.03 1631.91,1501.95L1600.39,1490.77C1599.34,1490.39 1598.79,1489.24 1599.16,1488.2C1599.53,1487.15 1600.68,1486.6 1601.73,1486.97L1631.99,1497.71L1653.98,1473.23C1654.72,1472.41 1656,1472.34 1656.82,1473.08C1657.65,1473.82 1657.72,1475.1 1656.97,1475.92L1634.08,1501.4C1633.69,1501.83 1633.15,1502.07 1632.59,1502.07Z" style="fill:rgb(195,227,230);fill-rule:nonzero;"/>
        <path d="M1829.26,1399.46C1814.92,1395.63 1798.71,1404.61 1795.65,1415.34C1792.37,1426.84 1806.11,1433.59 1803.11,1443.39C1798.24,1459.25 1758.62,1453.35 1753.49,1468.99C1749.93,1479.82 1767.45,1487.26 1765.91,1502.44C1764.07,1520.6 1737.84,1521.51 1729.61,1540.74C1719.71,1563.87 1737.83,1608.92 1774.77,1618.93C1804.8,1627.07 1840.07,1610.09 1845.37,1589.04C1851.21,1565.83 1817.94,1548.37 1825.48,1527.53C1833.05,1506.62 1872.1,1508.9 1873.75,1493.22C1875.17,1479.69 1846.51,1474.23 1844.32,1452.1C1842.98,1438.46 1853.1,1432.85 1849.2,1419.38C1846.69,1410.73 1839.37,1402.16 1829.26,1399.46Z" style="fill:rgb(255,210,208);fill-rule:nonzero;"/>
        <path d="M1774.64,1664.26C1773.64,1664.26 1772.77,1663.52 1772.64,1662.5C1761.07,1570.57 1815.25,1470.05 1815.79,1469.04C1816.33,1468.07 1817.55,1467.71 1818.52,1468.24C1819.5,1468.77 1819.86,1470 1819.33,1470.97C1818.78,1471.96 1765.23,1571.38 1776.63,1661.99C1776.77,1663.1 1775.99,1664.1 1774.89,1664.24L1774.64,1664.26Z" style="fill:rgb(250,147,142);fill-rule:nonzero;"/>
        <path d="M1861.02,1666.08L1601.48,1666.08C1599.25,1666.08 1597.45,1664.28 1597.45,1662.06C1597.45,1659.83 1599.25,1658.03 1601.48,1658.03L1861.02,1658.03C1863.24,1658.03 1865.05,1659.83 1865.05,1662.06C1865.05,1664.28 1863.24,1666.08 1861.02,1666.08Z" style="fill:rgb(223,236,254);fill-rule:nonzero;"/>
    </g>
</svg>
